<svg xmlns="http://www.w3.org/2000/svg" version="1.1" xmlns:xlink="http://www.w3.org/1999/xlink" xmlns:svgjs="http://svgjs.dev/svgjs" viewBox="0 0 800 800"><defs><linearGradient x1="50%" y1="0%" x2="50%" y2="100%" id="ssspill-grad"><stop stop-color="hsl(205, 69%, 60%)" stop-opacity="1" offset="45%"></stop><stop stop-color="hsl(205, 69%, 80%)" stop-opacity="1" offset="100%"></stop></linearGradient><filter id="ssspot-filter" x="-20%" y="-20%" width="140%" height="140%" filterUnits="objectBoundingBox" primitiveUnits="userSpaceOnUse" color-interpolation-filters="sRGB">
	<feTurbulence type="turbulence" baseFrequency="0.022 0.218" numOctaves="2" seed="308" stitchTiles="stitch" x="0%" y="0%" width="100%" height="100%" result="turbulence"></feTurbulence>
	<feGaussianBlur stdDeviation="0 3" x="0%" y="0%" width="100%" height="100%" in="turbulence" edgeMode="duplicate" result="blur"></feGaussianBlur>
	<feDisplacementMap in="SourceGraphic" in2="blur" scale="32" xChannelSelector="R" yChannelSelector="B" x="0%" y="0%" width="100%" height="100%" result="displacementMap"></feDisplacementMap>
</filter></defs><rect width="100%" height="100%" fill="hsl(212, 72%, 59%)"></rect><g fill="url(#ssspill-grad)" filter="url(#ssspot-filter)"><circle r="2.3456890931769796" cx="200.0029598260629" cy="26.744331504106515" opacity="0.22522960175350434"></circle><circle r="3.731235372961007" cx="303.2025294553985" cy="379.8926736620857" opacity="0.9280396300168795"></circle><circle r="8.492283520978644" cx="543.4415836247945" cy="211.4128285701656" opacity="0.25599966891133674"></circle><circle r="5.754843921575003" cx="585.3245843093995" cy="223.355370254637" opacity="0.746417441132408"></circle><circle r="7.1416222845763455" cx="46.75588139187908" cy="256.4045979381277" opacity="0.7484765973299387"></circle><circle r="9.22557098753106" cx="777.9196515421712" cy="169.44609578510492" opacity="0.4973950988979825"></circle><circle r="8.932823678735165" cx="481.67869455575817" cy="696.1829321330733" opacity="0.670748439563766"></circle><circle r="4.5174428153168655" cx="589.8927282773361" cy="268.4766769955227" opacity="0.8566290444896882"></circle><circle r="8.05955608406213" cx="365.60016825033847" cy="638.990153320345" opacity="0.7132811508743901"></circle><circle r="5.15680273474106" cx="134.45025297869083" cy="788.7378296696265" opacity="0.5008198128732526"></circle><circle r="4.603737767499637" cx="747.8694707892015" cy="616.4928230374771" opacity="0.15819126478767254"></circle><circle r="9.617562429722229" cx="374.39234011717247" cy="131.08537203389872" opacity="0.10804120697226934"></circle><circle r="12.129091409034988" cx="443.69267388317934" cy="320.1746423517537" opacity="0.9554228754638787"></circle><circle r="6.618186092651324" cx="314.94675094881336" cy="332.14709705619146" opacity="0.7848535394278768"></circle><circle r="11.829812678626489" cx="266.2510488498883" cy="159.7206399774714" opacity="0.5338260535092599"></circle><circle r="6.507951995312187" cx="641.4629484630854" cy="184.18031598166914" opacity="0.11266214462148902"></circle><circle r="7.836723395778647" cx="386.5733993578489" cy="555.8738336182099" opacity="0.8591120800503971"></circle><circle r="7.43254071119558" cx="651.7277249967436" cy="220.3099181354175" opacity="0.7324776349635876"></circle><circle r="3.659882257067739" cx="11.696912835619743" cy="412.618079887588" opacity="0.6784037250772672"></circle><circle r="10.358428602074572" cx="318.54586308083367" cy="649.988827138785" opacity="0.5451409444117118"></circle><circle r="4.712071691109099" cx="223.5859662126745" cy="693.5169639462487" opacity="0.5432863622353299"></circle><circle r="4.51962449328512" cx="167.69776712108523" cy="664.6285222078777" opacity="0.31096160316755095"></circle><circle r="9.692161945738597" cx="365.28404807963636" cy="415.2231348938641" opacity="0.21168633617606636"></circle><circle r="9.486948875519348" cx="214.57133055891947" cy="483.4539692851689" opacity="0.8024371589902648"></circle><circle r="8.380499210255099" cx="238.93339889919284" cy="511.9570917974816" opacity="0.6326874484266592"></circle><circle r="10.459928205424909" cx="427.3168924484043" cy="709.90149735774" opacity="0.9233377701354162"></circle><circle r="6.021223415896294" cx="73.11593929102884" cy="760.0412303897572" opacity="0.2533505392351185"></circle><circle r="7.039991411920049" cx="14.551532839744134" cy="240.33203980290958" opacity="0.6086226700410644"></circle><circle r="7.53540368160228" cx="338.1386368366386" cy="686.6115072860484" opacity="0.7721894870948394"></circle><circle r="5.980658855604443" cx="127.02230623201311" cy="717.8805232280807" opacity="0.9053389979626776"></circle><circle r="7.61082029815142" cx="115.55975007619145" cy="101.86088052295" opacity="0.8232797874543337"></circle><circle r="13.327454105281332" cx="494.97212218372255" cy="171.9396710659262" opacity="0.6558402004640512"></circle><circle r="8.672489605017072" cx="553.005078971421" cy="404.99292073428956" opacity="0.18371014203539773"></circle><circle r="4.005591339097196" cx="556.9891654072024" cy="704.1737337128694" opacity="0.1680935331131327"></circle><circle r="9.096464021604616" cx="107.84301092079305" cy="510.1755071750755" opacity="0.7653850366530938"></circle><circle r="4.860096776281751" cx="93.53867282223274" cy="783.4533136352134" opacity="0.8651710757858937"></circle><circle r="9.457596732333585" cx="775.2299909027536" cy="731.7412901801484" opacity="0.22675720025282775"></circle><circle r="5.364198721242593" cx="254.67624614471475" cy="64.56079662450007" opacity="0.1993126320829237"></circle><circle r="6.0710393991159375" cx="11.470016759178835" cy="737.9738454811762" opacity="0.40617747408945193"></circle><circle r="8.571686884715351" cx="55.81496358989977" cy="340.1191089711357" opacity="0.6161764106907099"></circle><circle r="5.573884575086688" cx="333.35022544705043" cy="755.6888860024982" opacity="0.9911492577293227"></circle><circle r="5.628081242858782" cx="637.2954790311934" cy="566.7614923952143" opacity="0.8822093512741381"></circle><circle r="4.57172927716345" cx="45.05321703722953" cy="94.24656653402413" opacity="0.9094860643874882"></circle><circle r="7.61366119991408" cx="703.6075711561193" cy="299.4216441369341" opacity="0.1559351651023685"></circle><circle r="6.58144316545741" cx="107.37914264800287" cy="341.86438595304804" opacity="0.8056779650677747"></circle><circle r="4.897304474656617" cx="710.1755920934645" cy="386.92498396180315" opacity="0.6374419667753745"></circle><circle r="10.331870601793193" cx="214.90138696536084" cy="169.4752634083085" opacity="0.8432034900822641"></circle><circle r="5.039549605305526" cx="180.94970748896074" cy="47.80875814135911" opacity="0.8040682976213042"></circle><circle r="5.130525580904532" cx="750.8332571779519" cy="252.7763914088828" opacity="0.5812791485722821"></circle><circle r="5.542638679249343" cx="39.91695754733443" cy="711.6292015124587" opacity="0.5221612955215649"></circle><circle r="9.778197851750239" cx="269.66269982168274" cy="210.77455188121775" opacity="0.8424030546455397"></circle><circle r="7.629121268528245" cx="475.47064222258916" cy="780.3593870166434" opacity="0.5721970982874037"></circle><circle r="12.166747388855995" cx="188.78889009924288" cy="528.5128742613633" opacity="0.8416621414159956"></circle><circle r="7.626692274600728" cx="659.249617406874" cy="634.3284586920515" opacity="0.8545013683497606"></circle><circle r="7.845457373641452" cx="263.12919687274166" cy="341.6043302283699" opacity="0.8537476794109287"></circle><circle r="11.298438603987254" cx="578.9409209136232" cy="481.26287136791746" opacity="0.6627408084139726"></circle><circle r="9.855347051863196" cx="774.8437208033716" cy="394.15517314387364" opacity="0.9220431006112212"></circle><circle r="9.939642681491396" cx="20.250922238844215" cy="49.62064406618718" opacity="0.3748388091920165"></circle><circle r="5.770204803355371" cx="104.31264421168149" cy="662.611365654435" opacity="0.3598103756830333"></circle><circle r="11.465885398099328" cx="464.40155864840284" cy="656.6433534438822" opacity="0.5747008628524135"></circle><circle r="8.837043396934112" cx="109.37532391612619" cy="254.88981092341632" opacity="0.9031075268987051"></circle><circle r="7.243897580940541" cx="91.60913302079719" cy="690.8107166196716" opacity="0.4438957714786784"></circle><circle r="6.137414638394266" cx="533.2955755169039" cy="91.22538933285259" opacity="0.9841126236132443"></circle><circle r="6.510308102625016" cx="618.6859394606719" cy="207.1289199729895" opacity="0.4421629670735009"></circle><circle r="8.447904246070339" cx="535.0412216688959" cy="578.596247227515" opacity="0.2561747925563919"></circle><circle r="3.171229332637717" cx="221.1958030915621" cy="21.064529815311136" opacity="0.8891966452000453"></circle><circle r="6.323148531392414" cx="191.66100933517603" cy="132.06344926429787" opacity="0.17921915987081277"></circle><circle r="7.7511560708446865" cx="767.1389920342978" cy="296.44424082216483" opacity="0.25143907279541383"></circle><circle r="13.994495590504092" cx="520.0924880926873" cy="468.84982741496384" opacity="0.1309272146632871"></circle><circle r="8.772491796215645" cx="300.10497742381864" cy="121.40726277518655" opacity="0.3580282742748152"></circle><circle r="9.955795320162242" cx="428.3352934883927" cy="469.58259674615" opacity="0.3158402507500824"></circle><circle r="9.498610900071995" cx="773.8307536608697" cy="128.5826750273526" opacity="0.1021754010506139"></circle><circle r="8.058132848222497" cx="147.15320196387208" cy="533.054055588346" opacity="0.15848203645558906"></circle><circle r="13.347572756311706" cx="765.4380365852817" cy="26.80575990235056" opacity="0.6676552528779474"></circle><circle r="5.5884892391778225" cx="249.50023981697439" cy="693.374530198232" opacity="0.26364156231156166"></circle><circle r="6.337720886078584" cx="199.6883561881449" cy="723.8740289630822" opacity="0.4026888213276708"></circle><circle r="8.41363483578081" cx="583.3892759368388" cy="152.67561204180802" opacity="0.3332287582192449"></circle><circle r="7.88334808829995" cx="257.1638015262761" cy="296.93277649397555" opacity="0.22180296923221474"></circle><circle r="9.599400116136117" cx="340.23082554012666" cy="300.68377874457826" opacity="0.3116972363076668"></circle><circle r="8.064124237704313" cx="358.72252383977406" cy="226.16550486045267" opacity="0.5223037624144239"></circle><circle r="8.883635645951044" cx="531.2585621751816" cy="528.6946730302051" opacity="0.3557049815538388"></circle><circle r="5.86959582422267" cx="682.2564023923696" cy="153.97039505349238" opacity="0.9412459318914463"></circle><circle r="7.85881473424992" cx="523.1028030164578" cy="694.5067422975256" opacity="0.1852249952773972"></circle><circle r="9.58542856552922" cx="387.4427891281555" cy="305.26442237592175" opacity="0.381473672817935"></circle><circle r="7.204086664265278" cx="730.9220239168488" cy="212.61846316371734" opacity="0.23690847049273667"></circle><circle r="8.566779488507862" cx="415.5432511251726" cy="510.60622675418455" opacity="0.888065442150172"></circle><circle r="4.759516255087176" cx="131.3260247002286" cy="660.9908275201021" opacity="0.5248955664745883"></circle><circle r="8.517030847035594" cx="690.1733994527413" cy="347.0048295786606" opacity="0.28091411708189495"></circle><circle r="6.32191557302728" cx="533.767658015074" cy="321.6448158880427" opacity="0.5715989163403152"></circle><circle r="5.885733583536857" cx="784.4102432312385" cy="681.6888523768899" opacity="0.6386544464237928"></circle><circle r="10.632421690933072" cx="369.5082721995176" cy="44.029924858280516" opacity="0.2004519104632446"></circle><circle r="4.125251520085502" cx="579.9541078810224" cy="588.2401107941658" opacity="0.474272680568544"></circle><circle r="9.475188479096568" cx="541.2793809739853" cy="740.9213433597531" opacity="0.11379637289433876"></circle><circle r="6.640138388251688" cx="706.9033846475768" cy="479.0921875383496" opacity="0.37712834709980947"></circle><circle r="5.884507128368757" cx="174.79312409599302" cy="15.32858998637744" opacity="0.685628381357299"></circle><circle r="6.842536425816054" cx="579.7625271238178" cy="115.4498581785126" opacity="0.3810078796147103"></circle><circle r="8.486190396476646" cx="285.3754541172894" cy="492.6224257444005" opacity="0.8519413676611843"></circle><circle r="6.9415573213156385" cx="700.6743907897514" cy="84.7959061876727" opacity="0.3461736263634352"></circle><circle r="6.547966577236636" cx="608.0367738000238" cy="382.51894138952497" opacity="0.4946026065805107"></circle><circle r="10.956190621663579" cx="482.1915752417117" cy="65.2509321443018" opacity="0.20425606511104472"></circle><circle r="6.409027180823076" cx="72.32557540949232" cy="492.17920650281945" opacity="0.4650973774464249"></circle><circle r="6.438399786927038" cx="614.4281683655666" cy="19.055359570815476" opacity="0.44251011202007196"></circle><circle r="3.559671453997015" cx="198.06458376510713" cy="769.0081582179681" opacity="0.2568463060499079"></circle><circle r="7.239470536308035" cx="766.7995670955347" cy="80.85401733954056" opacity="0.65760828673647"></circle><circle r="7.4455630005849835" cx="205.9587074152268" cy="427.205465506795" opacity="0.5643472893021781"></circle><circle r="7.021576542610948" cx="761.8241371715834" cy="561.4118621248829" opacity="0.40984877649317186"></circle><circle r="4.656558626822941" cx="332.4539308831389" cy="368.89388408543886" opacity="0.5564777980904367"></circle><circle r="6.076273519642124" cx="735.824045932174" cy="713.0199273315446" opacity="0.22648442004857375"></circle><circle r="6.711486264900995" cx="644.6685111577068" cy="151.89317374894443" opacity="0.14955413687083893"></circle><circle r="8.506151988695358" cx="271.42260783645037" cy="774.0523346043702" opacity="0.9456599758878493"></circle><circle r="5.912935113289646" cx="277.13003246833017" cy="392.2464517149294" opacity="0.13052670200858416"></circle><circle r="4.461015428526112" cx="749.3051842568256" cy="367.44466954540417" opacity="0.9645655042041237"></circle><circle r="2.296028688215753" cx="203.22855885784338" cy="5.980463186795594" opacity="0.6373242137917643"></circle><circle r="10.01919677121284" cx="113.79626538470619" cy="298.3645191632982" opacity="0.45128359941630125"></circle><circle r="7.286255469038773" cx="146.75466315915585" cy="687.875624241445" opacity="0.17935646423500567"></circle><circle r="5.162089365115992" cx="557.6907380782515" cy="273.2332696163151" opacity="0.7122721168895705"></circle><circle r="6.219594313162999" cx="745.3820327986862" cy="671.9985895224141" opacity="0.3168840125286021"></circle><circle r="4.24727239352655" cx="658.0769122754463" cy="673.0796829047317" opacity="0.8025920897110205"></circle><circle r="4.869771611240934" cx="781.4892089729196" cy="599.0490555827653" opacity="0.8153426695099348"></circle><circle r="8.84518838028793" cx="718.3591030661445" cy="126.59908463505774" opacity="0.7435826537209026"></circle><circle r="6.517119152696296" cx="661.2384876851229" cy="302.06840709766567" opacity="0.7879332418978365"></circle><circle r="5.498216985205086" cx="624.6549345669488" cy="286.29475809196896" opacity="0.734434644083454"></circle><circle r="10.86253809001112" cx="128.62323855982018" cy="610.1237499178411" opacity="0.6708987850591996"></circle><circle r="6.882476643299115" cx="74.9189756887934" cy="377.99650359931354" opacity="0.18545745677396863"></circle><circle r="7.779825869214104" cx="603.322339818025" cy="177.92703836877078" opacity="0.5192296387696305"></circle><circle r="4.725669446145428" cx="761.6745261657164" cy="444.9056399136061" opacity="0.904198418871754"></circle><circle r="7.279928978066733" cx="250.72703114683853" cy="543.4802678234677" opacity="0.8531275074670762"></circle><circle r="9.64720659701835" cx="17.91303182594614" cy="361.5173149827048" opacity="0.1745681214534301"></circle><circle r="5.217993646926758" cx="289.49879244005257" cy="448.4735040436657" opacity="0.5203715674710836"></circle><circle r="6.185842074268285" cx="366.37111843007256" cy="530.151870446918" opacity="0.4655164741204081"></circle><circle r="7.659145261954091" cx="110.18906077115007" cy="213.06221284506736" opacity="0.43532181928004854"></circle><circle r="3.5203976163627617" cx="104.6048129890596" cy="180.61732225620938" opacity="0.9383017334182036"></circle><circle r="5.429322908117831" cx="781.3584157157588" cy="499.30772906353167" opacity="0.3765619927490583"></circle><circle r="8.566453989439129" cx="436.5278678596705" cy="268.116569389602" opacity="0.1737197963458421"></circle><circle r="9.968161998895205" cx="508.84223330189286" cy="385.01213251476054" opacity="0.48035313419958015"></circle><circle r="6.598721594847146" cx="160.90711755969556" cy="346.4101951010595" opacity="0.16403159700352166"></circle><circle r="6.288222223844095" cx="324.5516219962185" cy="508.9559965172859" opacity="0.19597382817221654"></circle><circle r="7.72382410793208" cx="359.9622783932243" cy="715.1451718964154" opacity="0.48659036553506385"></circle><circle r="9.809629739748946" cx="650.7179941412111" cy="59.83817032037782" opacity="0.7813305402758977"></circle><circle r="9.704712570957595" cx="32.021499767250894" cy="557.6830342868025" opacity="0.6565664578154526"></circle><circle r="6.079363889670455" cx="713.7132274404341" cy="264.0302419414691" opacity="0.5712842697219972"></circle><circle r="5.002081868418589" cx="651.4280603715114" cy="342.2916929340711" opacity="0.25879448551273254"></circle><circle r="5.20097163089532" cx="12.36763245074689" cy="606.4734645611592" opacity="0.3727496753190641"></circle><circle r="7.6224113288841835" cx="574.4776812785574" cy="677.7818722114664" opacity="0.49033935538903073"></circle><circle r="4.549755328451777" cx="158.76206411272543" cy="420.5061007537259" opacity="0.764793774900322"></circle><circle r="9.296210669137604" cx="665.951874775413" cy="256.16108343806013" opacity="0.872371872050008"></circle><circle r="3.7022711966847597" cx="720.3100586163799" cy="364.91655544525395" opacity="0.3385037706155883"></circle><circle r="7.267798897463362" cx="647.0111193622594" cy="712.412850251643" opacity="0.6631129872130959"></circle><circle r="6.27325772287321" cx="511.86712263219863" cy="260.61986007805734" opacity="0.5672535884621823"></circle><circle r="10.491980788044621" cx="157.7085709640045" cy="103.78895589149697" opacity="0.18878037683461074"></circle><circle r="12.746315473005723" cx="409.7585904943169" cy="652.8969627476635" opacity="0.588989798438306"></circle><circle r="8.854835738784313" cx="326.8291523034015" cy="551.5517112079423" opacity="0.10105419378651496"></circle><circle r="5.40114837718357" cx="67.9205804658268" cy="717.0224954181774" opacity="0.3256095873991536"></circle><circle r="9.719790017287366" cx="689.2553090946257" cy="559.5745602253331" opacity="0.9103972736522018"></circle><circle r="6.511341844882994" cx="115.48546625205373" cy="148.81154118783138" opacity="0.540440530686398"></circle><circle r="7.203824869212134" cx="685.4303591104716" cy="201.32314371542844" opacity="0.8508497486755282"></circle><circle r="6.9744006765098305" cx="57.06121924778155" cy="669.9011367689517" opacity="0.6372374507737845"></circle><circle r="4.9664359046506465" cx="94.98992144742242" cy="15.181595674545683" opacity="0.4412146865378572"></circle><circle r="3.171031559387226" cx="154.50835762620278" cy="767.6507635261241" opacity="0.9801996796012237"></circle><circle r="8.867969660549331" cx="147.92957684518674" cy="60.2952676247785" opacity="0.9237548844339264"></circle><circle r="8.511449970764177" cx="557.6621512559188" cy="42.02457981001908" opacity="0.31258717591701285"></circle><circle r="8.462804540465942" cx="612.1283726476235" cy="330.1022750345963" opacity="0.2910952557816391"></circle><circle r="6.181661051572116" cx="685.7188603393531" cy="726.7177610905374" opacity="0.9242376381555314"></circle><circle r="7.675552619607661" cx="513.8051883151812" cy="226.90201829249207" opacity="0.8217910599201698"></circle><circle r="5.785177342390171" cx="524.6154118991175" cy="780.5597709805783" opacity="0.12751700482750872"></circle><circle r="13.5251134297344" cx="433.0055325003432" cy="374.3875955622612" opacity="0.8981021661284861"></circle><circle r="14.44398556158511" cx="474.9049776830715" cy="434.8476563187641" opacity="0.37521372722699187"></circle><circle r="9.122008978046125" cx="186.45820188610438" cy="636.5954825537391" opacity="0.7461637920085116"></circle><circle r="3.456909874586549" cx="605.8697600517995" cy="583.956672725087" opacity="0.9727218882182777"></circle><circle r="7.695657235421127" cx="699.3574933885102" cy="29.60557325363689" opacity="0.8528202010930622"></circle><circle r="6.58437629701068" cx="22.65702815703181" cy="13.835587079993797" opacity="0.8822337618979738"></circle><circle r="6.369996166000478" cx="629.02404759729" cy="651.4907954193238" opacity="0.9634358735360589"></circle><circle r="3.864282500876911" cx="559.5868585510719" cy="611.1852977615862" opacity="0.13530335594521264"></circle><circle r="5.794037466893983" cx="292.5151221817134" cy="680.510799084084" opacity="0.27103157097568387"></circle><circle r="7.598247952730555" cx="411.87930922990506" cy="212.12093103900935" opacity="0.43210751906788325"></circle><circle r="9.705584980895242" cx="683.8982847115673" cy="507.808426630828" opacity="0.3103437564750261"></circle><circle r="3.6316421988687875" cx="334.57382003086275" cy="786.3722924378592" opacity="0.7601435316386297"></circle><circle r="7.1898036638751535" cx="267.3367513201776" cy="723.2491969739189" opacity="0.870342688017254"></circle><circle r="4.374854345228936" cx="787.6317920712647" cy="434.4768562371604" opacity="0.4929122926885682"></circle><circle r="5.767909238671275" cx="139.08157407804592" cy="18.338542242296597" opacity="0.16570188283889292"></circle><circle r="4.868157433872402" cx="18.45104163158274" cy="656.0918113849591" opacity="0.9618392326024178"></circle><circle r="6.543670214231808" cx="633.4039585561594" cy="608.0547656011729" opacity="0.14437517538630146"></circle><circle r="4.107777496199931" cx="192.28377584125457" cy="689.5729844175298" opacity="0.6711459801714146"></circle><circle r="11.482484901449094" cx="157.90152662271544" cy="167.29564919911752" opacity="0.5182619805983365"></circle><circle r="7.487931590944434" cx="134.1823192253656" cy="395.7084456652768" opacity="0.27338652062168844"></circle><circle r="3.640256773506761" cx="10.843020465496293" cy="154.50818711127454" opacity="0.8177009897098103"></circle><circle r="4.405254440318249" cx="666.9514930724906" cy="179.50674116989964" opacity="0.30140563502815876"></circle><circle r="6.660115889819363" cx="706.7654717321923" cy="174.78786601043447" opacity="0.8215891299206844"></circle><circle r="9.087517470385192" cx="312.05854608192453" cy="267.99035914648675" opacity="0.44805496086296626"></circle><circle r="6.246088254667104" cx="643.4329505456041" cy="435.1871011280996" opacity="0.721413173373548"></circle><circle r="6.579268170263743" cx="657.0990240021556" cy="382.30235601882623" opacity="0.4836806468577216"></circle><circle r="9.346232111728582" cx="310.34532652828653" cy="606.9933447680728" opacity="0.6779868897329235"></circle><circle r="5.3850172932218054" cx="304.69105186785794" cy="192.27674397764474" opacity="0.6804901120167627"></circle><circle r="6.22469936565926" cx="775.6268822687815" cy="208.87144795579204" opacity="0.6265498006501735"></circle><circle r="5.028989611605312" cx="37.554652437520446" cy="139.5721317677463" opacity="0.42735943299938295"></circle><circle r="5.004657613477553" cx="173.8746587257735" cy="786.5545421116234" opacity="0.6917645299898195"></circle><circle r="8.634865769521124" cx="433.51004435157887" cy="26.506104073938456" opacity="0.1737318276530217"></circle><circle r="4.788606081104792" cx="414.5490032987664" cy="576.9200890972055" opacity="0.34653702357758986"></circle><circle r="10.041450971568747" cx="386.9684342942095" cy="757.6507591264684" opacity="0.5201185386819553"></circle><circle r="6.180387718415051" cx="58.16954692788787" cy="22.42117860709196" opacity="0.7386665268677742"></circle><circle r="2.6622640535575455" cx="10.089932157707558" cy="703.1188808469176" opacity="0.6787696166662381"></circle><circle r="9.944226364541272" cx="436.6307878279376" cy="135.13201649510293" opacity="0.17629080554024168"></circle><circle r="8.44707099832293" cx="208.7923634626519" cy="218.254055329715" opacity="0.8386872862904088"></circle><circle r="7.71694524204165" cx="780.2058995097032" cy="341.87808340656426" opacity="0.94514256304432"></circle><circle r="11.656870860747214" cx="484.8057780280092" cy="569.5087127998595" opacity="0.18299666506232837"></circle><circle r="5.496998597410455" cx="318.8917426312032" cy="437.8419502227986" opacity="0.9674594347679318"></circle><circle r="6.994128642234636" cx="605.6083478912209" cy="530.4922534617547" opacity="0.7244435226966611"></circle><circle r="8.331621010056718" cx="572.9208085094444" cy="547.7017541119889" opacity="0.14822028700221632"></circle><circle r="8.900187838133808" cx="340.4816593798419" cy="96.82507029104305" opacity="0.5658841580815781"></circle><circle r="5.727376070903402" cx="237.01627154280126" cy="611.1669789577408" opacity="0.5791534414278566"></circle><circle r="6.986120777536455" cx="66.25770678168286" cy="53.56812506531759" opacity="0.599246178474298"></circle><circle r="5.348571798448913" cx="551.4258276631374" cy="175.75742429653022" opacity="0.916400214989408"></circle><circle r="7.489042693540775" cx="779.6581626938039" cy="642.2652233756387" opacity="0.41311708326220875"></circle><circle r="7.645637466679798" cx="572.3053303789253" cy="334.3826781324947" opacity="0.5921977980573541"></circle><circle r="6.115416162598819" cx="264.8575128467749" cy="585.0401786432074" opacity="0.9141062991009813"></circle><circle r="5.511716704936261" cx="80.94445053977807" cy="566.2919604002441" opacity="0.7278312485412345"></circle><circle r="8.225700501564313" cx="28.236475756019072" cy="781.660845487376" opacity="0.8666958476950553"></circle><circle r="8.590374303562053" cx="487.0819736193518" cy="346.1718125834521" opacity="0.10930157461346679"></circle><circle r="4.492352027886924" cx="296.46162288733444" cy="569.7296676605665" opacity="0.22938410656752356"></circle><circle r="5.369135638385083" cx="252.37328647260296" cy="17.473414931866284" opacity="0.26808577513720433"></circle><circle r="5.284857981431513" cx="668.1176944271549" cy="461.2168167692545" opacity="0.8334836106705342"></circle><circle r="4.024146195632113" cx="24.75701458898096" cy="685.2890453732173" opacity="0.6941933252793846"></circle><circle r="6.033432494604526" cx="786.0239636629182" cy="253.30557966788012" opacity="0.6014885841650041"></circle><circle r="8.594173904737325" cx="97.6670834203342" cy="453.2019590053959" opacity="0.9274145077412846"></circle><circle r="8.810566916156533" cx="201.41067379759832" cy="82.91174615108646" opacity="0.2305017127469061"></circle><circle r="5.640202916506915" cx="697.1771432879094" cy="623.8991358973781" opacity="0.13642316732177096"></circle><circle r="6.476993646236968" cx="618.3931806032998" cy="687.9132756245137" opacity="0.2431709981449875"></circle><circle r="6.8586917045976685" cx="376.2392968980784" cy="360.4660306207164" opacity="0.8345288973629065"></circle><circle r="7.744878650097831" cx="129.31492554146587" cy="754.7171083358209" opacity="0.6004674641974043"></circle><circle r="6.19222633566601" cx="105.73065805691182" cy="550.9280048884063" opacity="0.2800990222288687"></circle><circle r="7.741972877379579" cx="24.08397606065316" cy="507.2231599682543" opacity="0.7427819638544103"></circle><circle r="8.90948480923591" cx="431.36586282064553" cy="770.0397113742242" opacity="0.7000140146276707"></circle><circle r="5.318491498198929" cx="97.64362755104649" cy="730.2093263588857" opacity="0.6498586517621064"></circle><circle r="6.319104935860663" cx="730.3256637070361" cy="450.8751109153868" opacity="0.5199809174348486"></circle><circle r="7.101698478141137" cx="58.15801534873032" cy="292.5521704332397" opacity="0.2963766215627114"></circle><circle r="5.509897169832136" cx="374.4470473001173" cy="493.16754252665504" opacity="0.5108078989327678"></circle><circle r="5.548194973251359" cx="76.94013905294011" cy="128.58405403333953" opacity="0.8161099748365549"></circle><circle r="6.746475614021071" cx="601.5823542348895" cy="781.6601818544087" opacity="0.4645715749096364"></circle><circle r="10.326245495330006" cx="732.2401992565143" cy="526.1701850213758" opacity="0.4634947191448071"></circle><circle r="6.463534228741105" cx="222.98628505083394" cy="648.927756273175" opacity="0.2805153594080265"></circle><circle r="7.429520932703624" cx="177.14213515413812" cy="391.3383837318965" opacity="0.6521767387066814"></circle><circle r="8.562089886176178" cx="292.6779400781138" cy="37.493138467054536" opacity="0.6486489803785573"></circle><circle r="6.7051271119462506" cx="351.72996724019686" cy="464.42405707408494" opacity="0.8496630914665154"></circle><circle r="9.831507388365683" cx="706.163425201797" cy="772.1220574034319" opacity="0.13999483984969247"></circle><circle r="5.357713956152641" cx="161.9678305860303" cy="445.9483766868028" opacity="0.2662590950798348"></circle><circle r="11.614796640342401" cx="410.4490794969709" cy="424.6557394680886" opacity="0.14894700966759272"></circle><circle r="4.363533701518153" cx="577.1244999949926" cy="79.73815650999411" opacity="0.48454848644028337"></circle><circle r="4.620585393659008" cx="128.84592650270648" cy="438.5724503834793" opacity="0.87184143366094"></circle><circle r="6.7162158800906875" cx="618.2488313189358" cy="743.2114220523872" opacity="0.8222166365446417"></circle><circle r="8.602154262632187" cx="389.040616575584" cy="173.80096352814746" opacity="0.6294395468086584"></circle><circle r="4.86613552883196" cx="110.39864820341491" cy="379.8731944298247" opacity="0.5771669269011986"></circle><circle r="5.806702709137706" cx="707.2977793998707" cy="710.4134874519725" opacity="0.17565601294464578"></circle><circle r="5.236294987188566" cx="203.06542521593076" cy="585.8712521332088" opacity="0.200710064098006"></circle><circle r="5.904427680216491" cx="621.564303022195" cy="248.5958067962628" opacity="0.1387340851790072"></circle><circle r="10.784106989885814" cx="465.1515837046216" cy="223.16353291269726" opacity="0.1760781054709495"></circle><circle r="6.025657352500102" cx="162.43132955921098" cy="718.7359920743324" opacity="0.2745926993309783"></circle><circle r="9.672261436838948" cx="24.37265917078264" cy="190.968766671255" opacity="0.35701123453163786"></circle><circle r="6.796814965683833" cx="108.42781460502668" cy="52.236641641532884" opacity="0.13723666103761795"></circle><circle r="8.974159604806434" cx="444.42095697568976" cy="176.8540095100111" opacity="0.9490473339633853"></circle><circle r="6.044056602543501" cx="664.4421208889983" cy="745.7167227823821" opacity="0.5460530096486862"></circle><circle r="8.718676083308875" cx="278.96387591529304" cy="634.7787187963212" opacity="0.5372040500787847"></circle><circle r="8.613946010471102" cx="356.42316587666437" cy="589.0186460645293" opacity="0.45435256961132986"></circle><circle r="5.642405928130222" cx="44.50500845977508" cy="388.99547566240403" opacity="0.19945608374941376"></circle><circle r="6.416695552858508" cx="40.69264683824101" cy="623.5020605418111" opacity="0.36703785464301397"></circle><circle r="5.935091020353187" cx="281.3629544957347" cy="88.14316023110867" opacity="0.5863425342367937"></circle><circle r="5.152289887619313" cx="619.7481437527188" cy="123.23452952947784" opacity="0.5504387571208242"></circle><circle r="7.5720812728156695" cx="333.8273746972142" cy="166.66621869233458" opacity="0.36312185956718424"></circle><circle r="7.912305219579672" cx="40.07866787652903" cy="746.5178056771995" opacity="0.5851332336499077"></circle><circle r="6.801170265061929" cx="67.70540841174427" cy="598.5247609918127" opacity="0.7440108872238944"></circle><circle r="5.361109987042266" cx="744.3275779768528" cy="481.75712206517846" opacity="0.3731416958529272"></circle><circle r="9.09855265149513" cx="282.4393136558442" cy="534.7382408257336" opacity="0.5531278281901509"></circle><circle r="12.998834150396792" cx="161.14248676388894" cy="238.55000650209402" opacity="0.978553023245954"></circle><circle r="5.749228271260232" cx="35.87259499116683" cy="456.424927563254" opacity="0.30575194694808727"></circle><circle r="4.57624923693927" cx="738.9987353170553" cy="168.03125391697296" opacity="0.3597443258106203"></circle><circle r="3.9920679781930932" cx="44.605747291516934" cy="421.1099861471643" opacity="0.9959529940309315"></circle><circle r="8.547544255125253" cx="85.96227082354117" cy="635.7876172740557" opacity="0.18272748131379252"></circle><circle r="7.396108506167371" cx="490.80804347984565" cy="739.4655839578131" opacity="0.4111666657025633"></circle><circle r="5.6250557044767255" cx="732.4762464456879" cy="413.97145172531094" opacity="0.8741248206289578"></circle><circle r="4.603280411142077" cx="691.3584465310512" cy="677.6447003374776" opacity="0.9132703950196134"></circle><circle r="4.152099378329774" cx="640.6001769027225" cy="787.8653234741474" opacity="0.7977621094136997"></circle><circle r="5.6146324136489945" cx="322.19185193971714" cy="224.29621014896148" opacity="0.6009564560589497"></circle><circle r="6.925356846722005" cx="14.706059711679739" cy="96.06867163189297" opacity="0.9695806457783526"></circle><circle r="5.050345263356832" cx="252.02784583675677" cy="651.9970747409253" opacity="0.18596592047140081"></circle><circle r="5.444159686257795" cx="88.17174799143042" cy="416.37783297470145" opacity="0.7652833109754976"></circle><circle r="4.2173438129756775" cx="224.2332611603435" cy="783.8951115638229" opacity="0.5495591306039967"></circle><circle r="8.550413304681868" cx="662.2587045228944" cy="115.60445400309051" opacity="0.45234732235928554"></circle><circle r="10.049366244715205" cx="387.8162906726227" cy="254.08650157738828" opacity="0.8354835611179796"></circle><circle r="11.900353274487603" cx="235.12705724513023" cy="115.63890871828698" opacity="0.43990871435814616"></circle><circle r="5.056307349571162" cx="591.3161784602216" cy="719.9258751888678" opacity="0.7431518159559365"></circle><circle r="10.287508344940772" cx="490.199444382195" cy="289.64624043382315" opacity="0.21496951893443533"></circle><circle r="7.979787163894394" cx="514.631407046626" cy="21.052767993453713" opacity="0.6309592294579763"></circle><circle r="8.427380175358131" cx="250.21010301375284" cy="454.465530862984" opacity="0.27383972204571894"></circle><circle r="7.057937980877295" cx="678.9376408519662" cy="596.3578914355361" opacity="0.9924483536791389"></circle><circle r="8.267973954328635" cx="685.1886856807437" cy="407.8468079438245" opacity="0.19903417760442826"></circle><circle r="10.100065718113653" cx="533.0638407136653" cy="135.64372017575803" opacity="0.3086607060993538"></circle><circle r="11.652192315383338" cx="599.4410102916341" cy="435.011369777988" opacity="0.4076369806289526"></circle><circle r="9.85589106854064" cx="484.96776503275333" cy="510.8709475333119" opacity="0.7148019927810266"></circle><circle r="10.240313773107909" cx="543.9201609633936" cy="646.0721949263888" opacity="0.39990697213146653"></circle><circle r="5.1093908149877265" cx="231.2561139140634" cy="740.3653490655663" opacity="0.46360201099084397"></circle><circle r="3.214230173955706" cx="267.89145097465183" cy="681.0694356400959" opacity="0.7999649986708082"></circle><circle r="9.093360818194432" cx="142.50673033237953" cy="482.7368197986072" opacity="0.8764920611558503"></circle><circle r="7.367912245901991" cx="640.8691545521718" cy="507.9926274011378" opacity="0.9295539028913159"></circle><circle r="7.529620869701898" cx="482.87315074163166" cy="117.23969797226728" opacity="0.5682624169952628"></circle><circle r="7.37930729895014" cx="697.7140549167675" cy="230.64702416627603" opacity="0.5534614936558785"></circle><circle r="7.644240037158998" cx="250.9934214213369" cy="252.22959323337267" opacity="0.24459652402173143"></circle><circle r="4.576850588769807" cx="76.46446206560125" cy="83.86391382853029" opacity="0.5168927628731012"></circle><circle r="3.7946785652385175" cx="597.8505705759501" cy="623.6392954136555" opacity="0.5690612754003871"></circle><circle r="7.075814103251581" cx="763.3125617147342" cy="777.405445869232" opacity="0.37063990239639766"></circle><circle r="8.639691525273673" cx="17.50281805912176" cy="307.6769301310411" opacity="0.23252807050268656"></circle><circle r="6.8873903520268245" cx="227.12329930246082" cy="560.7653325636965" opacity="0.5693247673499497"></circle><circle r="6.019957542618126" cx="721.8894220660272" cy="634.924149442558" opacity="0.6096683658202857"></circle><circle r="7.57799256135185" cx="242.05246495931866" cy="405.23441860208743" opacity="0.34521833799462937"></circle><circle r="4.706815902861572" cx="62.30676547519752" cy="224.87476276948328" opacity="0.8243140006992028"></circle><circle r="4.423100018149104" cx="656.2342674624124" cy="770.9344001260141" opacity="0.4696994490659898"></circle><circle r="6.6587172008995275" cx="593.8242893034737" cy="653.1088848350753" opacity="0.10165534061943352"></circle><circle r="6.024794149554428" cx="569.5886219907794" cy="769.9104444013769" opacity="0.6022778860391361"></circle><circle r="7.632066575414181" cx="609.7505944051996" cy="70.1554186637572" opacity="0.8203807684424419"></circle><circle r="5.826597011904192" cx="303.3430900004752" cy="729.5296974700171" opacity="0.650108539714249"></circle><circle r="9.235468448386126" cx="448.70970435227775" cy="529.3483983507401" opacity="0.5571342704977529"></circle><circle r="11.597198843057242" cx="417.0666692253217" cy="88.23139656068345" opacity="0.8273161128928128"></circle><circle r="4.702533781958838" cx="177.8135508805082" cy="747.1714164557075" opacity="0.8892247992687019"></circle><circle r="14.00546726888335" cx="189.34877152766325" cy="297.1885534046653" opacity="0.7929059356543915"></circle><circle r="9.36418818186582" cx="503.2614989446529" cy="626.4663095950732" opacity="0.8738128224140854"></circle><circle r="7.22421597264921" cx="730.4116391325017" cy="328.9152310521718" opacity="0.10603463477006682"></circle><circle r="9.66215449182815" cx="448.13370587391915" cy="603.5353925923682" opacity="0.14803695234861433"></circle><circle r="7.997342310538521" cx="163.49582504322072" cy="583.9044303193698" opacity="0.7224661631889808"></circle><circle r="4.7922749112948555" cx="223.62254024884587" cy="51.7861497470644" opacity="0.8380246516817642"></circle><circle r="9.467772080966975" cx="328.0230611445505" cy="20.100070606227103" opacity="0.16507845247753583"></circle><circle r="8.010338013063599" cx="64.11827265122248" cy="182.43201787065746" opacity="0.5718746269803043"></circle><circle r="6.7123488136662015" cx="702.3094940211427" cy="438.12965380891785" opacity="0.487111443381227"></circle><circle r="5.373352618991572" cx="328.3611781182166" cy="407.12002713492876" opacity="0.9026963576443736"></circle><circle r="11.297903242509946" cx="217.47599226679685" cy="359.48915788704073" opacity="0.14838559007970528"></circle><circle r="7.82746142906392" cx="182.52176978930643" cy="468.85373961026244" opacity="0.6745128063934809"></circle></g></svg>