<svg xmlns="http://www.w3.org/2000/svg" version="1.1" xmlns:xlink="http://www.w3.org/1999/xlink" xmlns:svgjs="http://svgjs.dev/svgjs" viewBox="0 0 800 800"><defs><linearGradient x1="50%" y1="0%" x2="50%" y2="100%" id="ssspill-grad"><stop stop-color="hsl(240,100%,98.04%)" stop-opacity="1" offset="45%"></stop><stop stop-color="hsl(0, 0%, 100%)" stop-opacity="1" offset="100%"></stop></linearGradient><filter id="ssspot-filter" x="-20%" y="-20%" width="140%" height="140%" filterUnits="objectBoundingBox" primitiveUnits="userSpaceOnUse" color-interpolation-filters="sRGB">
	<feTurbulence type="turbulence" baseFrequency="0.022 0.218" numOctaves="2" seed="64" stitchTiles="stitch" x="0%" y="0%" width="100%" height="100%" result="turbulence"></feTurbulence>
	<feGaussianBlur stdDeviation="0 3" x="0%" y="0%" width="100%" height="100%" in="turbulence" edgeMode="duplicate" result="blur"></feGaussianBlur>
	<feDisplacementMap in="SourceGraphic" in2="blur" scale="32" xChannelSelector="R" yChannelSelector="B" x="0%" y="0%" width="100%" height="100%" result="displacementMap"></feDisplacementMap>
</filter></defs><rect width="100%" height="100%" fill="hsl(204.38,78.05%,83.92%)"></rect><g fill="url(#ssspill-grad)" filter="url(#ssspot-filter)"><circle r="6.699567016190624" cx="18.550096048385466" cy="246.5127137705388" opacity="0.5445459179203231"></circle><circle r="10.525946101044791" cx="459.94722082623304" cy="30.159665557159563" opacity="0.3721811908311582"></circle><circle r="8.953842521548722" cx="568.612791989173" cy="18.672847449983248" opacity="0.5752449074456369"></circle><circle r="9.980823675974552" cx="746.4682525269156" cy="484.195602689828" opacity="0.6021283653972126"></circle><circle r="9.077146851571484" cx="575.8186260298389" cy="369.73599291576" opacity="0.50189123798826"></circle><circle r="7.254199778955311" cx="552.4539679874397" cy="771.8631649315695" opacity="0.862549941185226"></circle><circle r="3.2274611649268135" cx="206.19065197623405" cy="644.0994572589185" opacity="0.9087092601241837"></circle><circle r="3.9778275637748473" cx="642.7921647611955" cy="136.4818960803969" opacity="0.33555075059446615"></circle><circle r="6.348117360892738" cx="617.6219530652559" cy="120.70881212833845" opacity="0.607601616472126"></circle><circle r="6.0297608803540435" cx="22.983691181210858" cy="111.41689412489761" opacity="0.9882065483228432"></circle><circle r="7.309109802894328" cx="584.8409434193936" cy="166.48621988429827" opacity="0.9875115723581794"></circle><circle r="9.30515114203577" cx="546.9564967530581" cy="225.26370693324156" opacity="0.4802924316245335"></circle><circle r="6.761194241184307" cx="224.59880636466153" cy="423.8484346102434" opacity="0.5676333623097216"></circle><circle r="6.835428818413337" cx="731.8714584425683" cy="136.87173704196775" opacity="0.5413396575362476"></circle><circle r="7.679560100982993" cx="719.0371725668995" cy="96.39667152642402" opacity="0.3862901894040066"></circle><circle r="9.516413972901615" cx="159.5322090401594" cy="712.408209734441" opacity="0.137940855423215"></circle><circle r="4.7848647267890145" cx="268.5544545895742" cy="645.7273485122453" opacity="0.4976555987786715"></circle><circle r="6.67613790785507" cx="462.5234318781204" cy="75.00744903304818" opacity="0.3665107214678015"></circle><circle r="4.660868551296787" cx="783.093673341631" cy="630.5139995273624" opacity="0.4742887059886435"></circle><circle r="13.872607377015278" cx="261.6340592715266" cy="170.45178193223782" opacity="0.9089947870831677"></circle><circle r="11.634773541306421" cx="47.9273360191837" cy="72.14110978869154" opacity="0.5285941294773518"></circle><circle r="5.220182624977337" cx="499.2639784504688" cy="82.63231441765829" opacity="0.5098995268611991"></circle><circle r="6.969304410307666" cx="182.78727239705879" cy="421.9239816885763" opacity="0.27708916669752914"></circle><circle r="6.551365798275236" cx="545.0824146993976" cy="674.8673793255036" opacity="0.7220635834018428"></circle><circle r="5.828725203662605" cx="548.2508477540247" cy="707.2352527726123" opacity="0.720336666009843"></circle><circle r="5.450921563231864" cx="261.4720136062805" cy="683.5210839468872" opacity="0.8276262106663886"></circle><circle r="7.417700330510173" cx="782.7670705050052" cy="410.9813384891777" opacity="0.3397409024117285"></circle><circle r="4.40814855407958" cx="588.8799190427725" cy="768.7872885623109" opacity="0.2553938129721115"></circle><circle r="8.059643549629794" cx="297.4463409127405" cy="652.1128607751293" opacity="0.1343118383609473"></circle><circle r="8.159760503011523" cx="240.9166898057349" cy="316.0730671260319" opacity="0.7065128899126594"></circle><circle r="10.319864501036324" cx="453.28609376454193" cy="436.7433968328033" opacity="0.1860566192949476"></circle><circle r="6.178217864320253" cx="391.13122011243763" cy="336.08762836696684" opacity="0.9077320454547622"></circle><circle r="9.026776718836015" cx="579.4799232162246" cy="126.25407500965397" opacity="0.7754323119988733"></circle><circle r="5.056994417699988" cx="96.96453667473746" cy="786.9803106875852" opacity="0.10041753361023442"></circle><circle r="9.66662862230863" cx="660.3823005024959" cy="287.209602217834" opacity="0.7160958995655812"></circle><circle r="4.0160101642974455" cx="676.9014349332496" cy="196.6407159304987" opacity="0.5160008686310222"></circle><circle r="7.895855675092362" cx="383.90571120192556" cy="208.17103180533755" opacity="0.9276744357146737"></circle><circle r="6.771930254857756" cx="693.9318967136401" cy="579.7248222566282" opacity="0.3244672222821572"></circle><circle r="9.364588638656496" cx="507.21999079955333" cy="281.638617597235" opacity="0.9438570735954549"></circle><circle r="6.0630590556472175" cx="132.39504231135382" cy="209.78070260895316" opacity="0.4894424339148242"></circle><circle r="7.074269008019511" cx="239.18805195860594" cy="224.30744484419898" opacity="0.5132806109102643"></circle><circle r="4.557064465849097" cx="387.07185244451153" cy="305.2383339501668" opacity="0.5979039858461968"></circle><circle r="8.370899240947907" cx="64.17377077408118" cy="556.5120882051011" opacity="0.7812413856933433"></circle><circle r="8.663397202376366" cx="771.1810113999132" cy="165.34621640650127" opacity="0.4174979658321697"></circle><circle r="7.702121308214553" cx="60.27027698380365" cy="377.2933733023958" opacity="0.9355599752608182"></circle><circle r="6.07182225782249" cx="351.7888851129106" cy="351.51185165270107" opacity="0.3230782097334182"></circle><circle r="7.618925384534359" cx="208.67161360326472" cy="563.9952831884807" opacity="0.6231763572588528"></circle><circle r="7.850494338719889" cx="242.02512946000704" cy="783.151408266663" opacity="0.5014431167380677"></circle><circle r="6.347635931109523" cx="632.1231749030544" cy="731.2410535559835" opacity="0.54957571820519"></circle><circle r="8.90359435912033" cx="432.25810919367586" cy="110.36364895950157" opacity="0.7609272234033723"></circle><circle r="9.051306922402782" cx="635.8663052135123" cy="93.3396946985223" opacity="0.7197973122140567"></circle><circle r="5.738248025916942" cx="63.3397514692397" cy="151.62856057421044" opacity="0.3881684774013655"></circle><circle r="9.305769812429915" cx="136.83076557668556" cy="644.2407616897234" opacity="0.12463120592418271"></circle><circle r="7.119031119872277" cx="155.0437901114288" cy="612.4033915316392" opacity="0.2777642216531807"></circle><circle r="9.047592612163562" cx="488.71270539934227" cy="645.606890065417" opacity="0.16018265120298553"></circle><circle r="5.532006465849362" cx="285.2906878589966" cy="72.49666091780959" opacity="0.8409443006818972"></circle><circle r="9.891632436698874" cx="63.7567241499767" cy="193.459513234372" opacity="0.8211244266030522"></circle><circle r="7.716177639410142" cx="375.3877326918532" cy="773.9328979915925" opacity="0.6893237096672943"></circle><circle r="6.692464649543432" cx="755.1431105283764" cy="664.0229551076678" opacity="0.7960310535686703"></circle><circle r="5.721684470692095" cx="255.86140742105124" cy="377.2580186676875" opacity="0.5296599369276354"></circle><circle r="9.466620063365424" cx="93.94209338987416" cy="642.9864558914908" opacity="0.7455692699258155"></circle><circle r="8.385278000376005" cx="639.7657096449032" cy="17.80572825655112" opacity="0.14577454617702368"></circle><circle r="8.728832666471757" cx="706.1998284799176" cy="321.50534501634974" opacity="0.961839657446114"></circle><circle r="8.074899682737437" cx="781.9253183627437" cy="203.38560004468306" opacity="0.8494627113491325"></circle><circle r="3.8909917020923337" cx="663.5490833502013" cy="714.5131359772471" opacity="0.20591930506431133"></circle><circle r="7.295736635339428" cx="339.14177078735645" cy="247.3427151956946" opacity="0.3808907799717368"></circle><circle r="10.266995230263358" cx="484.2917985309008" cy="199.9878541829348" opacity="0.12252223824566426"></circle><circle r="5.567833107847163" cx="543.1535701165828" cy="529.7878812074213" opacity="0.7580422720965151"></circle><circle r="3.5939892016522648" cx="761.4139401487371" cy="67.96870906935754" opacity="0.5809608538699692"></circle><circle r="6.025193632312115" cx="528.9126563139336" cy="72.54338798954343" opacity="0.6454235630467121"></circle><circle r="8.019691434922603" cx="237.58949369519837" cy="474.9225947137655" opacity="0.33040138015339515"></circle><circle r="6.894517814453971" cx="139.65326267742725" cy="443.5685223186942" opacity="0.6929875789668084"></circle><circle r="10.135652809301774" cx="621.4569217774863" cy="624.9763443027725" opacity="0.5505713519918715"></circle><circle r="7.23500105505498" cx="188.328241296123" cy="318.2446135676772" opacity="0.742500619381711"></circle><circle r="4.739665472722362" cx="422.3001685017943" cy="17.484825750048987" opacity="0.9025917893845081"></circle><circle r="7.304664908351563" cx="532.6053786437836" cy="120.95467225751321" opacity="0.48999828602462236"></circle><circle r="3.8738599515410725" cx="575.8830308762631" cy="644.3344319605327" opacity="0.8897832509469467"></circle><circle r="3.239970157368644" cx="579.7415531297602" cy="747.8522209831153" opacity="0.20077330741003196"></circle><circle r="7.695471035425859" cx="383.04560555363577" cy="378.8431770907732" opacity="0.35623172102864564"></circle><circle r="9.155510546824239" cx="172.8119978905242" cy="161.6092980507484" opacity="0.9866793878703904"></circle><circle r="5.9826793540014815" cx="541.3805470058412" cy="296.27893576666526" opacity="0.7430302512968252"></circle><circle r="8.083755074929416" cx="665.3820213258448" cy="774.5229038173115" opacity="0.9824993752508734"></circle><circle r="6.124537543616908" cx="58.67304090798578" cy="21.62249058012071" opacity="0.5999453039292372"></circle><circle r="6.048371685829977" cx="20.857072389488387" cy="153.76155112211322" opacity="0.38754906609599826"></circle><circle r="9.222294840291026" cx="323.27133096072646" cy="685.437305090311" opacity="0.5193401172865523"></circle><circle r="6.883258346027782" cx="283.5788837653722" cy="452.15580684948424" opacity="0.29513171007544414"></circle><circle r="9.873403429027205" cx="104.08750948154787" cy="538.6931534763764" opacity="0.3707882191624924"></circle><circle r="7.636267868244115" cx="270.1482459332659" cy="412.3154557775946" opacity="0.6463677806243185"></circle><circle r="7.048351567604877" cx="331.4777741111631" cy="44.2588759718521" opacity="0.402110726590332"></circle><circle r="3.8849515553049527" cx="640.0724080361837" cy="654.1814482184295" opacity="0.9768616458293321"></circle><circle r="6.692838101291813" cx="211.67974910579176" cy="614.8350255150574" opacity="0.9155807630385767"></circle><circle r="5.855989057097158" cx="405.417391937456" cy="416.0407280335785" opacity="0.2914675881117289"></circle><circle r="5.277624271518027" cx="424.4788718047352" cy="362.6193263877968" opacity="0.9770342344195261"></circle><circle r="10.930485804394234" cx="288.25911175896096" cy="231.6865923573853" opacity="0.8095565760815306"></circle><circle r="11.020813438426549" cx="466.5096733320258" cy="488.69712321357656" opacity="0.23678609412235876"></circle><circle r="9.134918278017688" cx="473.19871815696223" cy="375.49753563300555" opacity="0.9286031109917026"></circle><circle r="5.684264946160083" cx="757.9234939392466" cy="97.62585028195214" opacity="0.49791187367375245"></circle><circle r="8.539727146186053" cx="386.31487975734984" cy="693.7944643303334" opacity="0.4216248458132925"></circle><circle r="4.4733681260955" cx="727.9155149706867" cy="31.403422565288057" opacity="0.972234877829674"></circle><circle r="7.236233504363624" cx="109.46537613984833" cy="492.48791729953774" opacity="0.10360451314176952"></circle><circle r="4.7733954151587445" cx="541.4189133518322" cy="38.5668493630733" opacity="0.22105920546549626"></circle><circle r="7.058819319550103" cx="117.06234506276478" cy="119.42147740604206" opacity="0.3716818540471295"></circle><circle r="7.390850735436159" cx="440.7537341044644" cy="540.9623229120009" opacity="0.6659663832704185"></circle><circle r="11.079257339830676" cx="508.592299184506" cy="338.8062578549811" opacity="0.8758445143331554"></circle><circle r="7.544645970376663" cx="623.0294265020292" cy="386.55105973778086" opacity="0.591784043466357"></circle><circle r="5.963064461004968" cx="338.71318658742297" cy="385.7353406041058" opacity="0.11712181941791715"></circle><circle r="5.23343439325507" cx="214.1924675511259" cy="98.95481179205261" opacity="0.42877279699474513"></circle><circle r="8.585929961346714" cx="668.3045214203214" cy="402.4033340984007" opacity="0.2143804850446582"></circle><circle r="5.514131469083237" cx="204.74974357376507" cy="268.6270593336769" opacity="0.1718154858879551"></circle><circle r="7.2686529112735165" cx="578.1806532059819" cy="611.5422912659376" opacity="0.9815392375113539"></circle><circle r="9.61413946058196" cx="219.18589292659436" cy="360.44836717253554" opacity="0.39032654716265114"></circle><circle r="8.6372543124706" cx="439.6895107279194" cy="394.6636450738528" opacity="0.3497638793766076"></circle><circle r="8.58477205635723" cx="20.52461585439359" cy="368.2242493497404" opacity="0.659231648119997"></circle><circle r="8.25307642788931" cx="167.05203527790465" cy="485.1620502770901" opacity="0.41383461103821595"></circle><circle r="5.5718324986719665" cx="570.2257307380117" cy="328.26111591951815" opacity="0.36548601790763124"></circle><circle r="8.978045370435803" cx="207.31018472814335" cy="513.0274407625593" opacity="0.25489246701796886"></circle><circle r="10.067733058554246" cx="545.7152027150524" cy="171.0696968351751" opacity="0.44023271526934127"></circle><circle r="6.787175110165306" cx="780.4496234895427" cy="123.151723924219" opacity="0.3266729165414227"></circle><circle r="7.179356651430885" cx="201.357167733067" cy="779.2901485018197" opacity="0.2650083858115121"></circle><circle r="9.126119549430602" cx="637.8760175206194" cy="443.81912419307" opacity="0.7641378148295704"></circle><circle r="9.228587860943753" cx="281.7901113220135" cy="500.8976813407492" opacity="0.7755271710660179"></circle><circle r="7.099503830576748" cx="168.79570229624895" cy="659.636757936645" opacity="0.9091344492409598"></circle><circle r="7.542193084788883" cx="687.8953289255776" cy="15.959719267188813" opacity="0.5854212098477535"></circle><circle r="6.675352139810687" cx="671.489376374304" cy="740.3067397304428" opacity="0.8951734358240093"></circle><circle r="10.716607875372382" cx="26.530121913206145" cy="427.8155825651138" opacity="0.37316324792668387"></circle><circle r="5.0409430695473265" cx="787.0681351205463" cy="287.81034707649934" opacity="0.48409016710984154"></circle><circle r="7.74134856613548" cx="212.2881559129092" cy="724.7775161356815" opacity="0.7260390692230945"></circle><circle r="5.754197922257761" cx="695.2880704770073" cy="48.46834091117294" opacity="0.44825514337791117"></circle><circle r="9.207700432283989" cx="399.11421068494695" cy="653.2442004820731" opacity="0.4526704155453315"></circle><circle r="8.05935502895322" cx="371.83929100293005" cy="549.1364666068158" opacity="0.3273179169264163"></circle><circle r="8.472235612051296" cx="276.4972806528546" cy="593.7939952616103" opacity="0.889393019748817"></circle><circle r="6.36754618187036" cx="69.06551378917749" cy="322.30424742866035" opacity="0.8825964477953503"></circle><circle r="8.637656092389612" cx="625.1339430365485" cy="297.5529366574462" opacity="0.7086326476337228"></circle><circle r="5.610990278414063" cx="323.65503905306934" cy="335.5795953516899" opacity="0.6914014025169903"></circle><circle r="6.190217282311477" cx="560.0191734923011" cy="428.5812855900539" opacity="0.9690395727677459"></circle><circle r="5.062937431810101" cx="743.3191854210663" cy="764.3600196907834" opacity="0.6980661723049756"></circle><circle r="5.048522863707923" cx="563.174640034848" cy="61.29941999679624" opacity="0.7073426522608696"></circle><circle r="8.992268941564472" cx="109.68994395214166" cy="176.47601876948022" opacity="0.9647142794843202"></circle><circle r="8.193650426671283" cx="613.8930862153909" cy="345.057088722977" opacity="0.8047508512853877"></circle><circle r="5.567149920714678" cx="727.7183397149499" cy="66.12302141162075" opacity="0.1417843428625668"></circle><circle r="7.140476483339368" cx="727.1202144351189" cy="188.37735359425693" opacity="0.6271893014455081"></circle><circle r="6.295181008978865" cx="657.686279556693" cy="57.57305183949838" opacity="0.7876494706368279"></circle><circle r="9.499108901075259" cx="360.2187456308596" cy="496.83573285228977" opacity="0.2189803927100473"></circle><circle r="10.043205380818467" cx="365.15643086514973" cy="153.47503034300874" opacity="0.47551217070675833"></circle><circle r="6.305783703461261" cx="744.9281496677903" cy="574.0909722631078" opacity="0.2619317012757936"></circle><circle r="8.650182734555656" cx="105.0351315909019" cy="364.1798609394847" opacity="0.37090997135815984"></circle><circle r="7.787003543630259" cx="244.30119727934968" cy="584.7888703510863" opacity="0.8717799858727461"></circle><circle r="8.49156801441374" cx="302.1087293754106" cy="395.22763846433577" opacity="0.26139806830520085"></circle><circle r="3.53581202060521" cx="352.36358239628953" cy="420.22490843340853" opacity="0.7060403157766925"></circle><circle r="8.003920020715903" cx="600.3973813678574" cy="414.32351486300627" opacity="0.4070089077860941"></circle><circle r="5.874036910316587" cx="634.5809005654992" cy="168.9536971118839" opacity="0.7509547994144046"></circle><circle r="5.105359874713844" cx="725.3157655420058" cy="227.23691129279993" opacity="0.5305491682142259"></circle><circle r="7.0241384522369135" cx="499.24178007968146" cy="783.1988106904083" opacity="0.4348104485553459"></circle><circle r="12.060278909517816" cx="689.4716602759631" cy="452.1857472946947" opacity="0.37844868415825594"></circle><circle r="5.756367731987449" cx="431.7197252174991" cy="223.76324093778294" opacity="0.5942565702581475"></circle><circle r="5.020131819686016" cx="54.44604808788282" cy="757.4944627427517" opacity="0.791093864179547"></circle><circle r="7.93466495980796" cx="349.6436201897197" cy="201.64997775493873" opacity="0.2994691411682016"></circle><circle r="5.714800928626109" cx="731.6767338582125" cy="444.06416683950687" opacity="0.5312363234192758"></circle><circle r="8.833716957451404" cx="88.24827999534511" cy="455.68515103303724" opacity="0.9958853853833456"></circle><circle r="4.449591259976726" cx="781.518861763641" cy="380.85232770513187" opacity="0.617532212577314"></circle><circle r="5.3237312592473325" cx="180.44973133264313" cy="590.7453154868386" opacity="0.38751601192759044"></circle><circle r="4.123238208580968" cx="724.3289819212553" cy="715.9298336641427" opacity="0.48214310262499305"></circle><circle r="10.164631338324853" cx="742.16111812036" cy="624.8690343124882" opacity="0.24881188727393883"></circle><circle r="9.896091330638386" cx="608.7918932404539" cy="575.6111790078701" opacity="0.29109423582470595"></circle><circle r="4.58772866692569" cx="373.3420492521954" cy="18.274534380186516" opacity="0.640735432639026"></circle><circle r="10.225670304599205" cx="629.6746160430316" cy="241.08266052321207" opacity="0.454901062323969"></circle><circle r="9.62794684769479" cx="34.992339054863116" cy="706.5968111289513" opacity="0.8458467720314219"></circle><circle r="8.64461723310632" cx="290.2549949604482" cy="21.741967684743994" opacity="0.12753336910635973"></circle><circle r="7.6401185733134795" cx="776.5829161088546" cy="28.806742752048518" opacity="0.8455215330976461"></circle><circle r="11.801005842783091" cx="252.83621490925773" cy="534.9964956972333" opacity="0.2521916184459638"></circle><circle r="6.907546407074224" cx="696.3183972671" cy="165.52730505404216" opacity="0.34735198828454383"></circle><circle r="6.9385099097147105" cx="783.3383412121715" cy="327.73919231019664" opacity="0.3695932882225069"></circle><circle r="9.28900052647242" cx="774.5126729953254" cy="521.6176907605256" opacity="0.12111986036573602"></circle><circle r="4.224387111294539" cx="626.8503977578113" cy="678.1052511638708" opacity="0.331693917928997"></circle><circle r="7.335118001787073" cx="286.15549323079597" cy="276.4380199819108" opacity="0.148623754535089"></circle><circle r="5.914526074892896" cx="642.641001284228" cy="198.30678236521166" opacity="0.9659559319926136"></circle><circle r="6.657189046511254" cx="595.7588695508146" cy="84.01650198137672" opacity="0.30366392345424587"></circle><circle r="7.801631199258042" cx="450.5074220742448" cy="276.9559916528584" opacity="0.8641588844514453"></circle><circle r="5.731923436073206" cx="141.08335140799406" cy="149.33586615730516" opacity="0.7439609399361344"></circle><circle r="4.146509570357798" cx="370.7790014783625" cy="438.0365035227096" opacity="0.7549339528360626"></circle><circle r="6.1200398959290565" cx="383.6281079598767" cy="272.71373442145114" opacity="0.6303756191096558"></circle><circle r="8.095284946161609" cx="747.0010714671238" cy="272.7413246702745" opacity="0.35976101377627534"></circle><circle r="5.391215484141501" cx="195.5932482265442" cy="693.1740377958126" opacity="0.8604572454603144"></circle><circle r="4.912134086022256" cx="782.4034013391974" cy="674.7096537837164" opacity="0.4580855102008735"></circle><circle r="3.880358760466122" cx="687.629501590139" cy="225.29223864858756" opacity="0.6678963934398943"></circle><circle r="5.983024515158198" cx="148.7529991854785" cy="777.4322121671404" opacity="0.14108298819434778"></circle><circle r="6.905916686040555" cx="191.15756828560973" cy="207.04694081034302" opacity="0.11142035221113113"></circle><circle r="6.645140726505538" cx="718.0544493148695" cy="256.687334893981" opacity="0.6263196686815113"></circle><circle r="8.55202321793508" cx="111.48954475059115" cy="691.5082744068421" opacity="0.26874179675291576"></circle><circle r="5.8401921102511505" cx="23.094060572523624" cy="324.56371821544457" opacity="0.6575320214072394"></circle><circle r="7.539466168092492" cx="140.82562351785222" cy="570.8869662056234" opacity="0.22289363907346027"></circle><circle r="4.259895415357819" cx="298.70490467687415" cy="752.5850384683245" opacity="0.31898940686985483"></circle><circle r="3.9718236211380584" cx="643.1496215062161" cy="699.6260912810802" opacity="0.7296288477146013"></circle><circle r="7.588834467397307" cx="84.48261985030834" cy="417.32430473804163" opacity="0.5147631761298068"></circle><circle r="3.958969045572754" cx="611.589508638647" cy="746.7791447821286" opacity="0.3514364192151843"></circle><circle r="5.012255581099186" cx="789.7263309965558" cy="461.1802108186738" opacity="0.39925373342445214"></circle><circle r="11.81779996519603" cx="506.2548496013062" cy="441.3514388359651" opacity="0.9524468352910441"></circle><circle r="10.163342602984216" cx="534.7864051268105" cy="637.0969975812526" opacity="0.227494578383071"></circle><circle r="5.841225937702031" cx="632.8510411600175" cy="779.8346393615765" opacity="0.7819688643119204"></circle><circle r="11.875897339276158" cx="305.62568443866036" cy="550.2229846250221" opacity="0.25941724565911295"></circle><circle r="6.596913108832703" cx="244.80914787673038" cy="25.48445743387136" opacity="0.48334914871946055"></circle><circle r="7.126928754617456" cx="483.84300114089035" cy="696.0548601202092" opacity="0.5109409842855367"></circle><circle r="4.575510547474303" cx="790.3478025008689" cy="741.822531295298" opacity="0.3938086564386364"></circle><circle r="9.604113649014785" cx="160.23231802721784" cy="534.8094098283815" opacity="0.6435989778348882"></circle><circle r="7.4509434985563" cx="581.1143789547556" cy="494.0493480840511" opacity="0.5451769436959104"></circle><circle r="7.713065589454654" cx="543.1595713158106" cy="387.4612280281348" opacity="0.5743877720394212"></circle><circle r="8.105851411068693" cx="622.5723292643738" cy="56.778176804960374" opacity="0.5233229970878905"></circle><circle r="9.065692790768733" cx="14.703063452413536" cy="35.58038211771064" opacity="0.6786732889323209"></circle><circle r="7.420390465253542" cx="745.5059862661996" cy="353.7438011178055" opacity="0.29566503679909606"></circle><circle r="5.718963097953749" cx="233.9803033073112" cy="681.0728062185624" opacity="0.3594450549595357"></circle><circle r="7.56835176253915" cx="312.7239440078241" cy="602.1105326417986" opacity="0.33992529676367"></circle><circle r="12.078678324979636" cx="434.1622058505033" cy="624.5164532189698" opacity="0.8303539275523861"></circle><circle r="5.435761527677959" cx="219.77653231929975" cy="59.96724977074893" opacity="0.5135677593748317"></circle><circle r="3.5313184965158264" cx="785.5705772899606" cy="356.04339232463434" opacity="0.3861385363589429"></circle><circle r="2.180746185684392" cx="566.370739068437" cy="791.98581731641" opacity="0.7123380796614346"></circle><circle r="8.400985991014124" cx="781.295436220808" cy="581.0523541128225" opacity="0.6998574845800001"></circle><circle r="10.150371244087331" cx="654.9902370818861" cy="507.5202891632242" opacity="0.7468854780485812"></circle><circle r="6.7560365458405816" cx="17.743396592551225" cy="184.48832632810297" opacity="0.7822061999011832"></circle><circle r="9.493232244106654" cx="344.10648302924653" cy="78.46816578641888" opacity="0.7792761108563755"></circle><circle r="5.078560222246038" cx="682.6639361507546" cy="80.06173654297041" opacity="0.5380391623452093"></circle><circle r="9.43875158728073" cx="398.94501775933054" cy="55.70549038153361" opacity="0.1953019402052762"></circle><circle r="6.3807967205066705" cx="454.05500412579505" cy="152.78493357199457" opacity="0.907352993601163"></circle><circle r="5.859068973813416" cx="178.97478508115927" cy="749.4619003109093" opacity="0.7109240102534196"></circle><circle r="7.384834308491623" cx="319.3014012366918" cy="421.50974203079306" opacity="0.5211502379857084"></circle><circle r="3.6736049832128366" cx="753.2824025248735" cy="10.897302701005428" opacity="0.22863880041034224"></circle><circle r="4.445117146001868" cx="745.1109913100661" cy="318.2862664772266" opacity="0.2729202191422413"></circle><circle r="5.0745855856755036" cx="51.05108786195314" cy="279.11838167957103" opacity="0.13552271364401797"></circle><circle r="7.528145331955262" cx="94.22258537802156" cy="220.16514291836995" opacity="0.3795491727519027"></circle><circle r="6.2402455100215635" cx="662.3124112251522" cy="617.3105671237759" opacity="0.7244410030544152"></circle><circle r="11.180705531386186" cx="496.8685465679844" cy="144.3698624619141" opacity="0.14094293877216094"></circle><circle r="5.437021329360045" cx="602.3137683176283" cy="787.7275559624102" opacity="0.21429705067421"></circle><circle r="8.612080835274941" cx="709.5066400022317" cy="745.473240017323" opacity="0.2901121674957416"></circle><circle r="7.188054607868813" cx="703.1260258720991" cy="287.202944562547" opacity="0.564990685432694"></circle><circle r="13.222154460141606" cx="33.613186436104904" cy="615.3177528976821" opacity="0.3703729146187652"></circle><circle r="3.2653336053287396" cx="765.5399652243166" cy="300.0796529143825" opacity="0.2661831042910539"></circle><circle r="10.515876348826513" cx="447.7427503404009" cy="324.19558553734043" opacity="0.2315043989610907"></circle><circle r="6.520739405551658" cx="460.5821474741888" cy="575.3818245117703" opacity="0.8272182954016705"></circle><circle r="7.514278490110396" cx="157.00042834052752" cy="90.40104827121259" opacity="0.2239976996765315"></circle><circle r="8.868920414181554" cx="216.0986123815402" cy="145.50327366633903" opacity="0.14593133546961118"></circle><circle r="7.071044034076129" cx="661.2045921825014" cy="158.79503374469343" opacity="0.8167277840290351"></circle><circle r="3.2790730681292617" cx="207.1158837408026" cy="668.0373479276151" opacity="0.33048268953894144"></circle><circle r="4.704977621984787" cx="609.8189664584997" cy="180.83036768628082" opacity="0.23687139842410732"></circle><circle r="8.38596708482968" cx="382.6535859780664" cy="104.49074789957986" opacity="0.3439474894248892"></circle><circle r="4.473447206547127" cx="286.8855333873052" cy="314.129776355789" opacity="0.578230115698565"></circle><circle r="6.937501528562715" cx="783.3147085486369" cy="251.06549484083578" opacity="0.5110172573838205"></circle><circle r="8.707914881286634" cx="137.8248510070076" cy="395.2199981378654" opacity="0.7611933668987709"></circle><circle r="7.606317377758" cx="727.3349023083439" cy="541.693469180336" opacity="0.38267463125324996"></circle><circle r="4.700077066850607" cx="285.309667424386" cy="699.2322268511608" opacity="0.3656061440024859"></circle><circle r="5.956191537425555" cx="29.57679103451599" cy="787.7142925255833" opacity="0.7988577219416704"></circle><circle r="8.62549025469075" cx="104.41925916215772" cy="265.5217973447473" opacity="0.846917004996709"></circle><circle r="4.198820162789504" cx="15.473753162501058" cy="286.953771598525" opacity="0.7270556451134461"></circle><circle r="4.89445892497693" cx="675.4706023905727" cy="254.29183205988576" opacity="0.6860157158186793"></circle><circle r="5.301201014438597" cx="506.56522083394896" cy="554.624191551898" opacity="0.9939674713015862"></circle><circle r="4.14968431643328" cx="766.3383460825918" cy="739.4645922909417" opacity="0.10266622283126557"></circle><circle r="4.318692262039635" cx="749.0637310685592" cy="705.4982879168422" opacity="0.5804308816357273"></circle><circle r="9.528778241721893" cx="340.5102377494116" cy="642.6599091480389" opacity="0.498222000111038"></circle><circle r="5.181733337639071" cx="111.80760300008163" cy="315.70901166231516" opacity="0.329987131415865"></circle><circle r="9.969671559779943" cx="112.76147564067713" cy="40.3483760275326" opacity="0.2432980130539548"></circle><circle r="7.433515724858848" cx="599.577939488124" cy="29.42579160956763" opacity="0.3674463106345782"></circle><circle r="4.824114168375427" cx="704.1558751252583" cy="783.6798249017675" opacity="0.7282884694671974"></circle><circle r="4.291430026844297" cx="748.5699234214667" cy="384.6371621484934" opacity="0.11798101583492064"></circle><circle r="6.914549020573751" cx="548.0538448422631" cy="469.08424551293734" opacity="0.41213701156550553"></circle><circle r="5.722151973028149" cx="330.1035869627272" cy="457.4962845475184" opacity="0.22948536742628647"></circle><circle r="8.222498090689763" cx="505.4069499711994" cy="395.5244738783943" opacity="0.39666374367032764"></circle><circle r="11.597931778332871" cx="585.0276817223393" cy="276.93040696017925" opacity="0.31731368082340317"></circle><circle r="6.444262322431167" cx="405.5068096890635" cy="247.13813828626223" opacity="0.9936114574526898"></circle><circle r="6.783716307627095" cx="767.0213285971298" cy="443.2703154704014" opacity="0.5367203616059392"></circle><circle r="3.8555643486151174" cx="691.9728183673077" cy="136.30556873300227" opacity="0.6760450833205326"></circle><circle r="4.369931849263424" cx="88.00913920896402" cy="753.4249530777611" opacity="0.12932725391412098"></circle><circle r="7.550460676631973" cx="240.49646932007465" cy="272.5476901808756" opacity="0.5060951245531221"></circle><circle r="8.93786161273584" cx="713.832164446572" cy="666.1544909390252" opacity="0.4347415123435766"></circle><circle r="11.61184165490163" cx="278.86640899566663" cy="117.38388600282077" opacity="0.8381343896620355"></circle><circle r="4.717984883698361" cx="771.9902187639763" cy="784.9199837853322" opacity="0.6579584748291128"></circle><circle r="5.19066816675173" cx="615.0564197892772" cy="148.3781775071766" opacity="0.14392543902961408"></circle><circle r="5.201460796253149" cx="45.723691223380214" cy="665.1751318400426" opacity="0.9602703622817088"></circle><circle r="4.34937140245337" cx="729.2551486977974" cy="406.866485260552" opacity="0.9321683640799762"></circle><circle r="4.433918094356041" cx="661.63042330099" cy="117.16902386830881" opacity="0.9051447239968174"></circle><circle r="8.355093909914478" cx="498.3167403704824" cy="602.6554390545432" opacity="0.914933916091725"></circle><circle r="9.817366135288168" cx="114.66988609371148" cy="734.7651229874867" opacity="0.27102433419455246"></circle><circle r="6.109339529989899" cx="405.1252599467262" cy="162.77123163968292" opacity="0.23329992832529042"></circle><circle r="5.192325276746821" cx="756.9741698834366" cy="226.69621540270646" opacity="0.11608333440635976"></circle><circle r="6.676583210860759" cx="594.937644933382" cy="531.245896498722" opacity="0.8870292382088021"></circle><circle r="5.92761227298916" cx="783.3547530209715" cy="702.6622037090199" opacity="0.44660288686417016"></circle><circle r="10.169034108870939" cx="516.7619415480203" cy="745.2167225415426" opacity="0.6700531319291414"></circle><circle r="5.15741570473082" cx="568.6718274863396" cy="729.5031473698973" opacity="0.8077390619416447"></circle><circle r="5.605853033484024" cx="591.2702122535229" cy="669.6551909546299" opacity="0.2596229126049526"></circle><circle r="8.950480078421661" cx="103.06053129043327" cy="598.1915684882226" opacity="0.9949719524841527"></circle><circle r="8.525970773179502" cx="336.46438550681523" cy="295.8808345671032" opacity="0.2282335534575202"></circle><circle r="6.389295623340125" cx="672.1813287151738" cy="662.8541473127168" opacity="0.40897978765795306"></circle><circle r="8.994146995380346" cx="357.16369185270486" cy="728.6003318387528" opacity="0.7349803099926168"></circle><circle r="8.5442050379289" cx="698.0514979502027" cy="364.30135413168193" opacity="0.3571012397316733"></circle><circle r="6.303307436571513" cx="493.7938310018213" cy="241.7994528055382" opacity="0.632261245621661"></circle><circle r="6.940138713412464" cx="704.4324970074384" cy="618.2345624766116" opacity="0.1998463824031185"></circle><circle r="8.893987438345329" cx="699.3713874503827" cy="515.498576894945" opacity="0.6713111663874359"></circle><circle r="5.7371159698468155" cx="690.2181436321505" cy="699.2661338738485" opacity="0.3210424127420549"></circle><circle r="10.669279999424301" cx="163.00817805389212" cy="355.681896808799" opacity="0.3075177052636073"></circle><circle r="18.482555579340648" cx="441.63592091187576" cy="749.1030612413341" opacity="0.2767775077580823"></circle><circle r="8.603146350743637" cx="37.835413374794186" cy="489.33433344528913" opacity="0.477478431278602"></circle><circle r="8.50926317583002" cx="368.63182127017745" cy="596.0757601253399" opacity="0.16886746602508068"></circle><circle r="7.910262079712457" cx="326.62923282805417" cy="132.29095712858873" opacity="0.7021476036850102"></circle><circle r="9.096766551287413" cx="19.933207838024398" cy="552.2451859035799" opacity="0.805147763557188"></circle><circle r="8.523742593103677" cx="560.5132868441414" cy="93.54303969409781" opacity="0.28105744569341085"></circle><circle r="4.8588902670708" cx="436.9517427025768" cy="190.49863376776526" opacity="0.50215941321041"></circle><circle r="7.786258840296938" cx="171.87398255288002" cy="267.8035142084064" opacity="0.30547842739337383"></circle><circle r="9.186078091215217" cx="551.7470417214862" cy="578.8327715794974" opacity="0.8170501529121993"></circle><circle r="5.491923028497215" cx="25.902215019547803" cy="214.07928297445227" opacity="0.9410132814436076"></circle><circle r="5.3911277160522335" cx="143.08195096730353" cy="295.2014918735889" opacity="0.8880066301684604"></circle><circle r="7.226698712202396" cx="592.3721775676926" cy="455.40359808370636" opacity="0.8678479850997534"></circle><circle r="6.628831852423461" cx="397.86650210145416" cy="459.5512856611922" opacity="0.3538387858936304"></circle><circle r="3.9594638734083674" cx="689.9577371943169" cy="108.2940960028556" opacity="0.5247960390003722"></circle><circle r="11.089815652267689" cx="311.42064285200314" cy="187.59321860339446" opacity="0.4091152202359355"></circle><circle r="6.90530892543465" cx="64.83128563784139" cy="243.40400980512055" opacity="0.8975921465349881"></circle><circle r="9.303325663667259" cx="510.2177322837787" cy="20.813427433280044" opacity="0.20206708793277714"></circle><circle r="10.297192325339989" cx="289.3886714503638" cy="353.7668801229252" opacity="0.10433243997251405"></circle><circle r="5.5137485912004855" cx="243.69964684810103" cy="634.6593911429204" opacity="0.7408117710039285"></circle><circle r="6.963668530803053" cx="599.4765422967313" cy="703.1603691474754" opacity="0.36969249460646714"></circle><circle r="10.065939664304423" cx="513.1297222986042" cy="496.31231665690683" opacity="0.38092672107694636"></circle><circle r="8.97976297643013" cx="654.5029515675207" cy="559.1341285498047" opacity="0.3365691624764582"></circle><circle r="4.599742540786656" cx="243.90079945006667" cy="749.8939093934988" opacity="0.6657910016680078"></circle><circle r="3.938196915038591" cx="789.5432068829963" cy="63.23384559760979" opacity="0.8011064075402461"></circle><circle r="6.367070789919608" cx="81.40874246085521" cy="107.3417387102457" opacity="0.716585024588572"></circle><circle r="8.777815600969472" cx="594.6408132491696" cy="215.95172119890307" opacity="0.9201967650150198"></circle><circle r="9.064983422645707" cx="174.70140463135635" cy="26.131735016305733" opacity="0.4929540765025838"></circle><circle r="5.119176137894367" cx="148.61281232284736" cy="239.45239090437806" opacity="0.7040588175058944"></circle><circle r="7.49803530824645" cx="14.859397054784777" cy="751.0356442075872" opacity="0.9855105242925609"></circle><circle r="6.180010031663298" cx="313.15616276395724" cy="724.193818044661" opacity="0.6005908947177577"></circle><circle r="8.462912489850684" cx="412.68829136714214" cy="499.46210613100084" opacity="0.45415976705750494"></circle><circle r="6.761067249472208" cx="626.3346047018708" cy="483.58994264952366" opacity="0.24445620997747908"></circle><circle r="7.090895470326474" cx="296.0864155083858" cy="784.0774204386536" opacity="0.8162030860270657"></circle><circle r="6.085241956390355" cx="256.4278136234451" cy="719.752865300072" opacity="0.33966454470707796"></circle><circle r="8.392206064507123" cx="656.082290286813" cy="341.95000838585673" opacity="0.8264487945386646"></circle><circle r="7.755897286645739" cx="319.53722963419665" cy="502.12465377425855" opacity="0.2686679942899041"></circle><circle r="5.021711210839037" cx="330.95823230924424" cy="13.590549461387955" opacity="0.14749875411362606"></circle></g></svg>